<svg id="圖層_1" data-name="圖層 1" xmlns="http://www.w3.org/2000/svg" viewBox="0 0 1020 890">
  <defs>
    <style>
      .cls-1 {
        fill: #fff;
      }
    </style>
  </defs>
  <g>
    <path class="cls-1" d="M330.93,804.45c-.09,3.2-.09,6.4-.09,9.66v1.57c0,3.2,0,6.46.09,9.66l3,.29v1.12H323.28v-1.12l3-.29c.07-3.17.07-6.4.07-9.66v-1.57c0-3.2,0-6.43-.07-9.66l-3-.29V803H334v1.15Z"/>
    <path class="cls-1" d="M356.66,825.76v1h-8.77v-1l2.24-.29c.07-1.79.1-4.42.1-6.24v-4.1c0-2.78-.8-3.74-2.53-3.74a6.59,6.59,0,0,0-4.19,2.08v5.76c0,1.76,0,4.45.06,6.27l2.08.26v1h-8.77v-1l2.34-.29c0-1.82.06-4.48.06-6.24v-2.3c0-2.08,0-3.24-.12-4.77l-2.53-.26v-.8l6.14-2,.45.29.22,2.91c2-2.34,4-3.23,6.08-3.23,3,0,4.9,1.92,4.9,6.21v3.9c0,1.82,0,4.45.06,6.27Z"/>
    <path class="cls-1" d="M367.83,816.48c3.36,1.12,4.73,2.81,4.73,5.28,0,3.26-2.62,5.5-7.32,5.5a12,12,0,0,1-5.92-1.47l.12-4.16h1.86l.9,3.87A7,7,0,0,0,365,826c2.56,0,3.9-1,3.9-2.75,0-1.41-.73-2.3-3.23-3.13l-1.76-.58c-2.75-.86-4.45-2.4-4.45-5,0-3.07,2.4-5.44,6.79-5.44a10.77,10.77,0,0,1,5.37,1.44l-.22,3.84h-1.63l-1-3.46a5.22,5.22,0,0,0-2.44-.57c-2.11,0-3.32,1-3.32,2.59,0,1.34.7,2.21,3.16,3Z"/>
    <path class="cls-1" d="M386.39,825a5.1,5.1,0,0,1-4.61,2.27c-2.94,0-4.58-1.44-4.58-4.7,0-1,0-1.92,0-3.2V811h-2.76v-1.05l3-.32,1.38-5h2.75l-.1,5.06h4.22V811h-4.25v11.84c0,1.8.8,2.53,2.08,2.53a3.59,3.59,0,0,0,2.27-1Z"/>
    <path class="cls-1" d="M405.3,825a3.68,3.68,0,0,1-3.65,2.21,3.34,3.34,0,0,1-3.49-2.82c-1.76,1.86-3,2.85-5.37,2.85-2.69,0-4.64-1.6-4.64-4.29s1.47-4.22,6.4-5.76c1-.32,2.24-.67,3.48-1v-1.63c0-3.39-.86-4.32-3.26-4.32a8.05,8.05,0,0,0-1.66.19l-.45,2.31c-.13,1.76-1,2.46-2.08,2.46a1.75,1.75,0,0,1-1.92-1.47c.42-2.88,3.07-4.67,7.52-4.67,4.19,0,5.95,1.82,5.95,6.3v8.26c0,1.44.45,1.92,1.15,1.92.48,0,.87-.29,1.44-1.06ZM398,817.18c-1,.29-1.85.55-2.4.77-2.52,1-3.48,2.46-3.48,4.45s1,2.78,2.56,2.78c1.05,0,1.85-.48,3.32-1.69Z"/>
    <path class="cls-1" d="M423.83,811.81l-3.75-.29a5.55,5.55,0,0,1,1.06,3.42c0,3.49-2.5,5.95-7,5.95a9.34,9.34,0,0,1-3.45-.6,3.29,3.29,0,0,0-.71,2c0,1.15.64,1.76,2.43,1.76h4.71c4.57,0,6.43,1.82,6.43,4.7,0,3.36-3.3,6.31-9.6,6.31-5.47,0-7.52-1.92-7.52-4.32,0-1.47,1-2.72,3.26-3.68a3,3,0,0,1-2.3-2.88c0-1.47.74-2.62,2.59-4.26a5.45,5.45,0,0,1-2.75-5c0-3.45,2.46-5.82,7-5.82a7.67,7.67,0,0,1,5,1.5l4.06-1.5.55.35Zm-10.44,15.8a12.69,12.69,0,0,1-3.07-.25,3.91,3.91,0,0,0-1.09,2.75c0,2.37,1.83,3.61,4.74,3.61,4.13,0,6.21-1.47,6.21-3.42,0-1.47-.77-2.69-3.07-2.69Zm4-12.7c0-2.91-1.18-4.74-3.13-4.74s-3.17,1.86-3.17,4.84,1.09,4.8,3.07,4.8S417.36,817.92,417.36,814.91Z"/>
    <path class="cls-1" d="M432.59,813.89c1-3.08,3.17-4.77,5.09-4.77a2.66,2.66,0,0,1,2.88,2c-.09,1.44-.7,2.43-2.21,2.43a3.31,3.31,0,0,1-2.52-1.54l-.36-.38a8.71,8.71,0,0,0-2.88,4.7v2.85c0,1.73,0,4.32.07,6.14l2.94.39v1H426v-1l2.34-.29c0-1.82.06-4.48.06-6.24v-2.3c0-2.08,0-3.24-.13-4.77l-2.53-.26v-.8l6.15-2,.45.29Z"/>
    <path class="cls-1" d="M458.9,825a3.68,3.68,0,0,1-3.65,2.21,3.34,3.34,0,0,1-3.49-2.82c-1.76,1.86-3,2.85-5.37,2.85-2.69,0-4.64-1.6-4.64-4.29s1.47-4.22,6.4-5.76c1-.32,2.24-.67,3.48-1v-1.63c0-3.39-.86-4.32-3.26-4.32a8.05,8.05,0,0,0-1.66.19l-.45,2.31c-.13,1.76-1,2.46-2.08,2.46a1.75,1.75,0,0,1-1.92-1.47c.41-2.88,3.07-4.67,7.52-4.67,4.19,0,6,1.82,6,6.3v8.26c0,1.44.45,1.92,1.15,1.92.48,0,.87-.29,1.44-1.06Zm-7.27-7.84c-1,.29-1.85.55-2.4.77-2.52,1-3.48,2.46-3.48,4.45s1,2.78,2.56,2.78c1.05,0,1.85-.48,3.32-1.69Z"/>
    <path class="cls-1" d="M490.64,825.76v1H482v-1l2.21-.29c0-1.82.06-4.42.06-6.24v-3.9c0-3-.83-3.91-2.49-3.91a6,6,0,0,0-4.16,2.11,11.28,11.28,0,0,1,.13,1.8v3.9c0,1.82,0,4.45.09,6.27l2.08.26v1h-8.67v-1l2.3-.29c0-1.82.07-4.42.07-6.24v-3.87c0-2.91-.8-3.94-2.5-3.94-1.28,0-2.65.8-4,2.15v5.66c0,1.76,0,4.45.06,6.27l2.08.26v1h-8.76v-1l2.33-.29c0-1.82.07-4.48.07-6.24v-2.3c0-2.12,0-3.27-.13-4.77l-2.53-.26v-.8l6.14-2,.45.29.23,2.88c1.85-2.15,3.74-3.2,5.92-3.2a4.17,4.17,0,0,1,4.44,3.33c2.05-2.44,4-3.33,6.08-3.33,3.3,0,4.93,2,4.93,6.27v3.84c0,1.82,0,4.45.06,6.27Z"/>
    <path class="cls-1" d="M494.58,811.71a2.64,2.64,0,1,1,5.28,0,2.64,2.64,0,0,1-5.28,0Zm0,12.93a2.64,2.64,0,1,1,2.65,2.62A2.66,2.66,0,0,1,494.58,824.64Z"/>
    <path class="cls-1" d="M523.83,804.16l-3.08.29c0,3.13,0,6.3,0,9.5v4.51c0,4.29-.32,6.72-1.09,8.64a7.31,7.31,0,0,1-7.13,5.54c-1.67,0-3-.48-3.62-1.83a2.26,2.26,0,0,1,2.4-2.11,3.56,3.56,0,0,1,2.72,1.54l.93,1c.93-1,1.47-2.88,1.47-6.11,0-2.65-.13-7.26-.25-20.7l-3.36-.32V803h11Z"/>
    <path class="cls-1" d="M542.58,825a3.69,3.69,0,0,1-3.65,2.21,3.34,3.34,0,0,1-3.49-2.82c-1.76,1.86-3,2.85-5.37,2.85-2.69,0-4.64-1.6-4.64-4.29s1.47-4.22,6.4-5.76c1-.32,2.23-.67,3.48-1v-1.63c0-3.39-.86-4.32-3.26-4.32a8.15,8.15,0,0,0-1.67.19l-.44,2.31c-.13,1.76-1,2.46-2.08,2.46a1.75,1.75,0,0,1-1.92-1.47c.41-2.88,3.07-4.67,7.52-4.67,4.19,0,5.95,1.82,5.95,6.3v8.26c0,1.44.45,1.92,1.15,1.92.48,0,.86-.29,1.44-1.06Zm-7.27-7.84c-1,.29-1.85.55-2.4.77-2.53,1-3.49,2.46-3.49,4.45s1,2.78,2.57,2.78c1,0,1.85-.48,3.32-1.69Z"/>
    <path class="cls-1" d="M552.94,816.48c3.36,1.12,4.74,2.81,4.74,5.28,0,3.26-2.62,5.5-7.33,5.5a12.06,12.06,0,0,1-5.92-1.47l.13-4.16h1.86l.89,3.87a7,7,0,0,0,2.79.51c2.56,0,3.9-1,3.9-2.75,0-1.41-.74-2.3-3.23-3.13l-1.76-.58c-2.75-.86-4.45-2.4-4.45-5,0-3.07,2.4-5.44,6.78-5.44a10.8,10.8,0,0,1,5.38,1.44l-.22,3.84h-1.64l-1-3.46a5.18,5.18,0,0,0-2.43-.57c-2.11,0-3.33,1-3.33,2.59,0,1.34.71,2.21,3.17,3Z"/>
    <path class="cls-1" d="M560.5,818.14c0-5.73,4-9,8.64-9s8.64,3.26,8.64,9-3.75,9.12-8.64,9.12S560.5,823.87,560.5,818.14Zm12.76,0c0-5.28-1.53-7.87-4.12-7.87s-4.13,2.59-4.13,7.87,1.47,7.91,4.13,7.91S573.26,823.49,573.26,818.17Z"/>
    <path class="cls-1" d="M600.33,825.76v1h-8.76v-1l2.24-.29c.06-1.79.09-4.42.09-6.24v-4.1c0-2.78-.8-3.74-2.52-3.74a6.59,6.59,0,0,0-4.2,2.08v5.76c0,1.76,0,4.45.07,6.27l2.08.26v1h-8.77v-1l2.34-.29c0-1.82.06-4.48.06-6.24v-2.3c0-2.08,0-3.24-.13-4.77l-2.53-.26v-.8l6.15-2,.45.29.22,2.91c2-2.34,4-3.23,6.08-3.23,3,0,4.89,1.92,4.89,6.21v3.9c0,1.82,0,4.45.07,6.27Z"/>
    <path class="cls-1" d="M620,825a3.68,3.68,0,0,1-3.65,2.21,3.32,3.32,0,0,1-3.48-2.82c-1.76,1.86-3,2.85-5.38,2.85-2.69,0-4.64-1.6-4.64-4.29s1.47-4.22,6.4-5.76c1-.32,2.24-.67,3.49-1v-1.63c0-3.39-.87-4.32-3.27-4.32a8.13,8.13,0,0,0-1.66.19l-.45,2.31c-.13,1.76-1,2.46-2.08,2.46a1.76,1.76,0,0,1-1.92-1.47c.42-2.88,3.07-4.67,7.52-4.67,4.19,0,5.95,1.82,5.95,6.3v8.26c0,1.44.45,1.92,1.16,1.92.48,0,.86-.29,1.44-1.06Zm-7.26-7.84c-1,.29-1.86.55-2.4.77-2.53,1-3.49,2.46-3.49,4.45s1,2.78,2.56,2.78c1.06,0,1.86-.48,3.33-1.69Z"/>
    <path class="cls-1" d="M638.89,825a3.67,3.67,0,0,1-3.64,2.21,3.33,3.33,0,0,1-3.49-2.82c-1.76,1.86-3,2.85-5.38,2.85-2.68,0-4.64-1.6-4.64-4.29s1.48-4.22,6.4-5.76c1-.32,2.24-.67,3.49-1v-1.63c0-3.39-.86-4.32-3.26-4.32a8.15,8.15,0,0,0-1.67.19l-.44,2.31c-.13,1.76-1,2.46-2.08,2.46a1.75,1.75,0,0,1-1.92-1.47c.41-2.88,3.07-4.67,7.52-4.67,4.19,0,6,1.82,6,6.3v8.26c0,1.44.44,1.92,1.15,1.92.48,0,.86-.29,1.44-1.06Zm-7.26-7.84c-1,.29-1.85.55-2.4.77-2.53,1-3.49,2.46-3.49,4.45s1,2.78,2.56,2.78c1.06,0,1.86-.48,3.33-1.69Z"/>
    <path class="cls-1" d="M649.26,816.48c3.36,1.12,4.74,2.81,4.74,5.28,0,3.26-2.63,5.5-7.33,5.5a12,12,0,0,1-5.92-1.47l.13-4.16h1.85l.9,3.87a7,7,0,0,0,2.78.51c2.56,0,3.91-1,3.91-2.75,0-1.41-.74-2.3-3.23-3.13l-1.76-.58c-2.76-.86-4.45-2.4-4.45-5,0-3.07,2.4-5.44,6.78-5.44a10.8,10.8,0,0,1,5.38,1.44l-.23,3.84h-1.63l-1-3.46a5.18,5.18,0,0,0-2.43-.57c-2.11,0-3.33,1-3.33,2.59,0,1.34.7,2.21,3.17,3Z"/>
    <path class="cls-1" d="M656.81,818.14c0-5.73,4-9,8.64-9s8.64,3.26,8.64,9-3.74,9.12-8.64,9.12S656.81,823.87,656.81,818.14Zm12.77,0c0-5.28-1.53-7.87-4.13-7.87s-4.12,2.59-4.12,7.87,1.47,7.91,4.12,7.91S669.58,823.49,669.58,818.17Z"/>
    <path class="cls-1" d="M696.65,825.76v1h-8.76v-1l2.23-.29c.07-1.79.1-4.42.1-6.24v-4.1c0-2.78-.8-3.74-2.53-3.74a6.59,6.59,0,0,0-4.19,2.08v5.76c0,1.76,0,4.45.07,6.27l2.08.26v1h-8.77v-1l2.33-.29c0-1.82.07-4.48.07-6.24v-2.3c0-2.08,0-3.24-.13-4.77l-2.53-.26v-.8l6.15-2,.44.29.23,2.91c2-2.34,4-3.23,6.08-3.23,3,0,4.89,1.92,4.89,6.21v3.9c0,1.82,0,4.45.07,6.27Z"/>
    <path class="cls-1" d="M307.46,875.32l-.1,6.43H288.84v-1.12l3-.29c.06-3.17.06-6.4.06-9.66v-1.57c0-3.2,0-6.43-.06-9.66l-3-.29V858h17.88l0,6.27H305l-1.22-4.93h-7.33c-.09,3.14-.09,6.34-.09,9.7h4.8l.48-3.49h1.5v8.06h-1.5l-.45-3.36h-4.83c0,3.62,0,6.91.09,10.18h8l1.25-5.12Z"/>
    <path class="cls-1" d="M340.45,880.76v1h-8.64v-1l2.21-.29c0-1.82.06-4.42.06-6.24v-3.9c0-3-.83-3.91-2.49-3.91a6,6,0,0,0-4.16,2.11,11.33,11.33,0,0,1,.12,1.8v3.9c0,1.82,0,4.45.1,6.27l2.08.26v1h-8.67v-1l2.3-.29c0-1.82.07-4.42.07-6.24v-3.87c0-2.91-.8-3.94-2.5-3.94a6.19,6.19,0,0,0-4,2.15v5.66c0,1.76,0,4.45.06,6.27l2.08.26v1h-8.76v-1l2.33-.29c0-1.82.07-4.48.07-6.24v-2.3c0-2.12,0-3.27-.13-4.77L310,866.9v-.8l6.14-2,.45.29.23,2.88c1.85-2.15,3.74-3.2,5.91-3.2a4.17,4.17,0,0,1,4.45,3.33c2.05-2.44,4-3.33,6.08-3.33,3.3,0,4.93,2,4.93,6.27v3.84c0,1.82,0,4.45.06,6.27Z"/>
    <path class="cls-1" d="M360.1,880a3.68,3.68,0,0,1-3.65,2.21,3.34,3.34,0,0,1-3.49-2.82c-1.76,1.86-3,2.85-5.37,2.85-2.69,0-4.64-1.6-4.64-4.29s1.47-4.22,6.4-5.76c1-.32,2.24-.67,3.49-1v-1.63c0-3.39-.87-4.32-3.27-4.32a8.05,8.05,0,0,0-1.66.19l-.45,2.31c-.13,1.76-1,2.46-2.08,2.46a1.75,1.75,0,0,1-1.92-1.47c.42-2.88,3.07-4.67,7.52-4.67,4.19,0,5.95,1.82,5.95,6.3v8.26c0,1.44.45,1.92,1.15,1.92.48,0,.87-.29,1.44-1.06Zm-7.26-7.84c-1,.29-1.86.55-2.4.77-2.53,1-3.49,2.46-3.49,4.45s1,2.78,2.56,2.78c1.05,0,1.85-.48,3.33-1.69Z"/>
    <path class="cls-1" d="M370.53,880.76v1h-8.8v-1l2.34-.29c0-1.82.06-4.48.06-6.24V872c0-2.05,0-3.27-.09-4.87l-2.6-.25V866l6.5-1.82.45.29-.07,5v4.8c0,1.76,0,4.45.07,6.27Zm-6.94-22.56a2.53,2.53,0,1,1,2.53,2.37A2.41,2.41,0,0,1,363.59,858.2Z"/>
    <path class="cls-1" d="M382.18,880.76v1H372.9v-1l2.46-.29c.07-2,.1-4.22.1-6.24V858l-2.59-.2v-.89l6.43-1.38.45.29-.13,5.09v13.31c0,2,0,4.22.09,6.27Z"/>
    <path class="cls-1" d="M386.15,866.71a2.64,2.64,0,1,1,2.65,2.59A2.63,2.63,0,0,1,386.15,866.71Zm0,12.93a2.64,2.64,0,1,1,2.65,2.62A2.66,2.66,0,0,1,386.15,879.64Z"/>
    <path class="cls-1" d="M415.39,859.16l-3.07.29c0,3.13,0,6.3,0,9.5v4.51c0,4.29-.32,6.72-1.09,8.64a7.31,7.31,0,0,1-7.13,5.54c-1.67,0-3-.48-3.62-1.83a2.26,2.26,0,0,1,2.4-2.11,3.56,3.56,0,0,1,2.72,1.54l.93,1c.93-1,1.47-2.88,1.47-6.11,0-2.65-.13-7.26-.26-20.7l-3.36-.32V858h11Z"/>
    <path class="cls-1" d="M434.15,880a3.69,3.69,0,0,1-3.65,2.21,3.34,3.34,0,0,1-3.49-2.82c-1.76,1.86-3,2.85-5.38,2.85-2.68,0-4.64-1.6-4.64-4.29s1.48-4.22,6.4-5.76c1-.32,2.24-.67,3.49-1v-1.63c0-3.39-.86-4.32-3.26-4.32a8.15,8.15,0,0,0-1.67.19l-.44,2.31c-.13,1.76-1,2.46-2.08,2.46a1.75,1.75,0,0,1-1.92-1.47c.41-2.88,3.07-4.67,7.52-4.67,4.19,0,6,1.82,6,6.3v8.26c0,1.44.45,1.92,1.15,1.92.48,0,.86-.29,1.44-1.06Zm-7.27-7.84c-1,.29-1.85.55-2.4.77-2.53,1-3.49,2.46-3.49,4.45s1,2.78,2.56,2.78c1.06,0,1.86-.48,3.33-1.69Z"/>
    <path class="cls-1" d="M444.51,871.48c3.36,1.12,4.74,2.81,4.74,5.28,0,3.26-2.62,5.5-7.33,5.5a12.06,12.06,0,0,1-5.92-1.47l.13-4.16H438l.89,3.87a7,7,0,0,0,2.79.51c2.56,0,3.9-1,3.9-2.75,0-1.41-.74-2.3-3.23-3.13l-1.76-.58c-2.75-.86-4.45-2.4-4.45-5,0-3.07,2.4-5.44,6.78-5.44a10.8,10.8,0,0,1,5.38,1.44l-.22,3.84h-1.64l-1-3.46a5.18,5.18,0,0,0-2.43-.57c-2.11,0-3.33,1-3.33,2.59,0,1.34.71,2.21,3.17,3Z"/>
    <path class="cls-1" d="M452.07,873.14c0-5.73,4-9,8.64-9s8.64,3.26,8.64,9-3.75,9.12-8.64,9.12S452.07,878.87,452.07,873.14Zm12.76,0c0-5.28-1.53-7.87-4.12-7.87s-4.13,2.59-4.13,7.87,1.47,7.91,4.13,7.91S464.83,878.49,464.83,873.17Z"/>
    <path class="cls-1" d="M491.9,880.76v1h-8.76v-1l2.24-.29c.06-1.79.09-4.42.09-6.24v-4.1c0-2.78-.8-3.74-2.53-3.74a6.59,6.59,0,0,0-4.19,2.08v5.76c0,1.76,0,4.45.07,6.27l2.08.26v1h-8.77v-1l2.34-.29c0-1.82.06-4.48.06-6.24v-2.3c0-2.08,0-3.24-.13-4.77l-2.53-.26v-.8l6.15-2,.45.29.22,2.91c2-2.34,4-3.23,6.08-3.23,3,0,4.89,1.92,4.89,6.21v3.9c0,1.82,0,4.45.07,6.27Z"/>
    <path class="cls-1" d="M503.39,880.76v1h-9.28v-1l2.47-.29c.06-2,.09-4.22.09-6.24V858l-2.59-.2v-.89l6.43-1.38.45.29-.13,5.09v13.31c0,2,0,4.22.1,6.27Z"/>
    <path class="cls-1" d="M514.63,871.48c3.36,1.12,4.73,2.81,4.73,5.28,0,3.26-2.62,5.5-7.33,5.5a12.06,12.06,0,0,1-5.92-1.47l.13-4.16h1.86l.89,3.87a7,7,0,0,0,2.79.51c2.56,0,3.9-1,3.9-2.75,0-1.41-.73-2.3-3.23-3.13l-1.76-.58c-2.75-.86-4.45-2.4-4.45-5,0-3.07,2.4-5.44,6.79-5.44a10.8,10.8,0,0,1,5.37,1.44l-.22,3.84h-1.63l-1-3.46a5.15,5.15,0,0,0-2.43-.57c-2.11,0-3.33,1-3.33,2.59,0,1.34.71,2.21,3.17,3Z"/>
    <path class="cls-1" d="M528.29,866.58a7.08,7.08,0,0,1,5.44-2.46c3.87,0,6.91,3.29,6.91,9s-3.36,9.18-7.58,9.18a6,6,0,0,1-4.71-2.21v2.21c0,1.92,0,4.22.07,6.53l2.75.32v1h-9.44v-1l2.43-.29c0-2.3.07-4.61.07-6.56V872c0-2.08,0-3.27-.1-4.8l-2.59-.26v-.8l6.08-2,.45.32Zm.13,12.45a4.41,4.41,0,0,0,3.2,1.18c2.62,0,4.51-1.82,4.51-7,0-5-1.63-7.07-4.29-7.07a4.77,4.77,0,0,0-3.42,1.47Z"/>
    <path class="cls-1" d="M563.1,880.76v1h-8.76v-1l2.3-.29c0-1.79.07-4.42.07-6.24v-4.1c0-2.78-.93-3.74-2.6-3.74a6.44,6.44,0,0,0-4.22,2.08v5.76c0,1.76,0,4.45.1,6.27l2,.26v1h-8.7v-1l2.34-.29c0-1.82.06-4.48.06-6.24V858l-2.59-.2v-.89l6.33-1.38.48.29-.12,5.09v6.49c1.92-2.2,3.8-3.29,6.14-3.29,3,0,4.9,1.82,4.9,6.27v3.84c0,1.82,0,4.45.06,6.27Z"/>
    <path class="cls-1" d="M565.67,873.14c0-5.73,4-9,8.64-9s8.64,3.26,8.64,9-3.75,9.12-8.64,9.12S565.67,878.87,565.67,873.14Zm12.76,0c0-5.28-1.53-7.87-4.12-7.87s-4.13,2.59-4.13,7.87,1.47,7.91,4.13,7.91S578.43,878.49,578.43,873.17Z"/>
    <path class="cls-1" d="M596.77,880a5.1,5.1,0,0,1-4.61,2.27c-2.94,0-4.57-1.44-4.57-4.7,0-1,0-1.92,0-3.2V866h-2.75v-1.05l3-.32,1.38-5H592l-.1,5.06h4.23V866h-4.26v11.84c0,1.8.8,2.53,2.08,2.53a3.59,3.59,0,0,0,2.27-1Z"/>
    <path class="cls-1" d="M598.43,873.14c0-5.73,4-9,8.64-9s8.64,3.26,8.64,9-3.74,9.12-8.64,9.12S598.43,878.87,598.43,873.14Zm12.77,0c0-5.28-1.54-7.87-4.13-7.87s-4.13,2.59-4.13,7.87,1.48,7.91,4.13,7.91S611.2,878.49,611.2,873.17Z"/>
    <path class="cls-1" d="M635.65,866.81l-3.75-.29a5.55,5.55,0,0,1,1.06,3.42c0,3.49-2.5,5.95-7,5.95a9.34,9.34,0,0,1-3.45-.6,3.29,3.29,0,0,0-.71,2c0,1.15.64,1.76,2.44,1.76H629c4.58,0,6.43,1.82,6.43,4.7,0,3.36-3.29,6.31-9.6,6.31-5.47,0-7.52-1.92-7.52-4.32,0-1.47,1-2.72,3.27-3.68-1.44-.54-2.31-1.41-2.31-2.88s.74-2.62,2.59-4.26a5.45,5.45,0,0,1-2.75-5c0-3.45,2.47-5.82,7-5.82a7.67,7.67,0,0,1,5,1.5l4.06-1.5.55.35Zm-10.43,15.8a12.74,12.74,0,0,1-3.08-.25,3.9,3.9,0,0,0-1.08,2.75c0,2.37,1.82,3.61,4.73,3.61,4.13,0,6.21-1.47,6.21-3.42,0-1.47-.77-2.69-3.07-2.69Zm4-12.7c0-2.91-1.18-4.74-3.13-4.74s-3.17,1.86-3.17,4.84,1.09,4.8,3.07,4.8S629.18,872.92,629.18,869.91Z"/>
    <path class="cls-1" d="M644.42,868.89c1-3.08,3.16-4.77,5.08-4.77a2.66,2.66,0,0,1,2.88,2c-.09,1.44-.7,2.43-2.2,2.43a3.31,3.31,0,0,1-2.53-1.54l-.35-.38a8.59,8.59,0,0,0-2.88,4.7v2.85c0,1.73,0,4.32.06,6.14l2.94.39v1h-9.63v-1l2.34-.29c0-1.82.06-4.48.06-6.24v-2.3c0-2.08,0-3.24-.13-4.77l-2.52-.26v-.8l6.14-2,.45.29Z"/>
    <path class="cls-1" d="M670.72,880a3.68,3.68,0,0,1-3.65,2.21,3.34,3.34,0,0,1-3.49-2.82c-1.76,1.86-3,2.85-5.37,2.85-2.69,0-4.64-1.6-4.64-4.29s1.47-4.22,6.4-5.76c1-.32,2.24-.67,3.48-1v-1.63c0-3.39-.86-4.32-3.26-4.32a8.05,8.05,0,0,0-1.66.19l-.45,2.31c-.13,1.76-1,2.46-2.08,2.46a1.75,1.75,0,0,1-1.92-1.47c.42-2.88,3.07-4.67,7.52-4.67,4.19,0,5.95,1.82,5.95,6.3v8.26c0,1.44.45,1.92,1.15,1.92.48,0,.87-.29,1.44-1.06Zm-7.27-7.84c-1,.29-1.85.55-2.4.77-2.52,1-3.48,2.46-3.48,4.45s1,2.78,2.56,2.78c1,0,1.85-.48,3.32-1.69Z"/>
    <path class="cls-1" d="M678.21,866.58a7.05,7.05,0,0,1,5.44-2.46c3.87,0,6.91,3.29,6.91,9s-3.36,9.18-7.59,9.18a6,6,0,0,1-4.7-2.21v2.21c0,1.92,0,4.22.06,6.53l2.76.32v1h-9.44v-1l2.43-.29c0-2.3.06-4.61.06-6.56V872c0-2.08,0-3.27-.09-4.8l-2.59-.26v-.8l6.07-2,.45.32Zm.12,12.45a4.44,4.44,0,0,0,3.2,1.18c2.63,0,4.52-1.82,4.52-7,0-5-1.64-7.07-4.29-7.07a4.79,4.79,0,0,0-3.43,1.47Z"/>
    <path class="cls-1" d="M713,880.76v1h-8.77v-1l2.31-.29c0-1.79.06-4.42.06-6.24v-4.1c0-2.78-.93-3.74-2.59-3.74a6.44,6.44,0,0,0-4.22,2.08v5.76c0,1.76,0,4.45.09,6.27l2.05.26v1h-8.7v-1l2.33-.29c0-1.82.07-4.48.07-6.24V858l-2.59-.2v-.89l6.33-1.38.48.29-.13,5.09v6.49c1.92-2.2,3.81-3.29,6.15-3.29,3,0,4.89,1.82,4.89,6.27v3.84c0,1.82,0,4.45.07,6.27Z"/>
    <path class="cls-1" d="M732,865.62l-2.08.29-6.56,17.41c-2,5.34-4.61,7.1-6.79,7.1-1.69,0-3.29-1-3.32-2.3a2.31,2.31,0,0,1,2.46-1.8,3.64,3.64,0,0,1,2.82,1.57l.44.51a12.33,12.33,0,0,0,3.3-5.18l-7.17-17.41-1.89-.19v-1h9.09v1l-2.62.29,4.51,12.32,4.16-12.29-3-.32v-1H732Z"/>
  </g>
</svg>
